<svg xmlns="http://www.w3.org/2000/svg" width="69" height="69" viewBox="0 0 69 69">
  <g id="Group_1374" data-name="Group 1374" transform="translate(-1502 -9917)">
    <path id="Path_263" data-name="Path 263" d="M34.5,0A34.5,34.5,0,1,1,0,34.5,34.5,34.5,0,0,1,34.5,0Z" transform="translate(1502 9917)" fill="#ffd018"/>
    <g id="Component_8" data-name="Component 8" transform="translate(1520 9932)">
      <rect id="Rectangle_393" data-name="Rectangle 393" width="37" height="37" transform="translate(0 0)" fill="none"/>
      <path id="Path_2" data-name="Path 2" d="M49.713,32c13.973,0,21.576-11.507,21.576-21.576V9.4a16.7,16.7,0,0,0,3.7-3.9,17.058,17.058,0,0,1-4.315,1.233,8,8,0,0,0,3.288-4.11,18.848,18.848,0,0,1-4.726,1.849A7.339,7.339,0,0,0,63.686,2a7.72,7.72,0,0,0-7.6,7.6,4.006,4.006,0,0,0,.205,1.644A21.245,21.245,0,0,1,40.671,3.233a7.869,7.869,0,0,0-1.027,3.9,8.164,8.164,0,0,0,3.288,6.37,6.927,6.927,0,0,1-3.493-1.027h0a7.51,7.51,0,0,0,6.165,7.4,6.335,6.335,0,0,1-2.055.205,3.5,3.5,0,0,1-1.438-.205A7.785,7.785,0,0,0,49.3,25.22a15.515,15.515,0,0,1-9.452,3.288A5.689,5.689,0,0,1,38,28.3,19.4,19.4,0,0,0,49.713,32" transform="translate(-38 2.622)" fill="#272727" fill-rule="evenodd"/>
    </g>
  </g>
</svg>
