<?xml version="1.0" encoding="utf-8"?>
<!-- Generator: Adobe Illustrator 17.0.0, SVG Export Plug-In . SVG Version: 6.00 Build 0)  -->
<!DOCTYPE svg PUBLIC "-//W3C//DTD SVG 1.1//EN" "http://www.w3.org/Graphics/SVG/1.1/DTD/svg11.dtd">
<svg version="1.1" id="Layer_1" xmlns="http://www.w3.org/2000/svg" xmlns:xlink="http://www.w3.org/1999/xlink" x="0px" y="0px"
	 width="160px" height="53px" viewBox="0 0 160 53" enable-background="new 0 0 160 53" xml:space="preserve">
<rect y="0" opacity="0" fill="#2DB561" width="160" height="53"/>
<g>
	<path d="M160,45.595c0,3.906-3.166,7.074-7.071,7.074H7.073C3.167,52.669,0,49.501,0,45.595V7.404c0-3.906,3.167-7.073,7.073-7.073
		h145.856c3.905,0,7.071,3.167,7.071,7.073V45.595z"/>
	<g id="PLAY_1_">
		<defs>
			<path id="SVGID_1_" d="M34.674,23.369l-7.215-4.165c0,0-13.143-7.589-13.916-8.035c-0.773-0.446-1.542-0.176-1.542,0.756
				c0,1.553,0,16.204,0,16.204s0,15.833,0,16.533c0,0.699,0.55,1,1.221,0.613c0.671-0.388,14.237-8.221,14.237-8.221l7.214-4.165
				c0,0,6.121-3.534,6.935-4.003c0.814-0.47,0.735-1.115,0.049-1.484C40.971,27.031,34.674,23.369,34.674,23.369z"/>
		</defs>
		<clipPath id="SVGID_2_">
			<use xlink:href="#SVGID_1_"  overflow="visible"/>
		</clipPath>
		<linearGradient id="SVGID_3_" gradientUnits="userSpaceOnUse" x1="20.9374" y1="10.4072" x2="20.9374" y2="45.8503">
			<stop  offset="0" style="stop-color:#257CB0"/>
			<stop  offset="0.2863" style="stop-color:#4A93B5"/>
			<stop  offset="0.767" style="stop-color:#78BCBB"/>
			<stop  offset="1" style="stop-color:#89CFBD"/>
		</linearGradient>
		<polygon clip-path="url(#SVGID_2_)" fill="url(#SVGID_3_)" points="12.001,10.407 12.001,28.129 12.001,45.85 29.874,28.129 		"/>
		<linearGradient id="SVGID_4_" gradientUnits="userSpaceOnUse" x1="12.0012" y1="19.2036" x2="34.6741" y2="19.2036">
			<stop  offset="0" style="stop-color:#52C1AD"/>
			<stop  offset="1" style="stop-color:#DEE89A"/>
		</linearGradient>
		<polygon clip-path="url(#SVGID_2_)" fill="url(#SVGID_4_)" points="34.674,23.369 27.46,19.204 12.001,10.278 12.001,10.407 
			29.874,28.129 		"/>
		<linearGradient id="SVGID_5_" gradientUnits="userSpaceOnUse" x1="23.3375" y1="28.129" x2="23.3375" y2="45.9792">
			<stop  offset="0" style="stop-color:#EC413D"/>
			<stop  offset="0.1668" style="stop-color:#DA4452"/>
			<stop  offset="0.5748" style="stop-color:#B0487A"/>
			<stop  offset="0.8619" style="stop-color:#954A92"/>
			<stop  offset="1" style="stop-color:#8A4A9D"/>
		</linearGradient>
		<polygon clip-path="url(#SVGID_2_)" fill="url(#SVGID_5_)" points="12.001,45.85 12.001,45.979 27.46,37.053 34.674,32.888 
			29.874,28.129 		"/>
		<linearGradient id="SVGID_6_" gradientUnits="userSpaceOnUse" x1="36.3961" y1="23.3689" x2="36.3961" y2="32.8885">
			<stop  offset="0" style="stop-color:#F58879"/>
			<stop  offset="0.1194" style="stop-color:#F69079"/>
			<stop  offset="0.7128" style="stop-color:#FCB877"/>
			<stop  offset="1" style="stop-color:#FEC874"/>
		</linearGradient>
		<polygon clip-path="url(#SVGID_2_)" fill="url(#SVGID_6_)" points="34.674,23.369 29.874,28.129 34.674,32.888 42.919,28.129 		
			"/>
	</g>
	<g>
		<path fill="#F9F9F9" d="M124.52,35.057c-0.671,0-1.284-0.124-1.838-0.371c-0.555-0.248-1.021-0.629-1.397-1.143h-0.113
			c0.075,0.602,0.113,1.172,0.113,1.711v4.241h-1.56V24.562h1.269l0.216,1.411h0.075c0.402-0.565,0.869-0.972,1.402-1.223
			c0.533-0.251,1.144-0.376,1.834-0.376c1.367,0,2.422,0.467,3.165,1.402c0.743,0.934,1.115,2.245,1.115,3.931
			c0,1.693-0.378,3.008-1.133,3.946C126.91,34.589,125.862,35.057,124.52,35.057z M124.294,25.699c-1.053,0-1.815,0.292-2.285,0.875
			c-0.47,0.583-0.712,1.511-0.725,2.784v0.348c0,1.449,0.242,2.485,0.725,3.109c0.483,0.624,1.257,0.935,2.323,0.935
			c0.891,0,1.589-0.36,2.093-1.081c0.504-0.721,0.757-1.715,0.757-2.982c0-1.285-0.252-2.271-0.757-2.958
			C125.92,26.043,125.209,25.699,124.294,25.699z"/>
		<path fill="#F9F9F9" d="M132.414,34.869h-1.561V20.235h1.561V34.869z"/>
		<path fill="#F9F9F9" d="M141.389,34.869l-0.311-1.467h-0.075c-0.514,0.646-1.027,1.084-1.538,1.312
			c-0.511,0.229-1.149,0.343-1.914,0.343c-1.022,0-1.823-0.263-2.403-0.79c-0.58-0.527-0.87-1.275-0.87-2.247
			c0-2.081,1.665-3.172,4.994-3.273l1.75-0.057v-0.639c0-0.809-0.174-1.406-0.522-1.791c-0.348-0.386-0.905-0.579-1.669-0.579
			c-0.859,0-1.831,0.263-2.916,0.79l-0.48-1.194c0.508-0.276,1.064-0.492,1.67-0.649c0.605-0.157,1.211-0.235,1.82-0.235
			c1.229,0,2.139,0.272,2.732,0.818c0.592,0.546,0.888,1.42,0.888,2.624v7.034H141.389z M137.863,33.769
			c0.971,0,1.735-0.266,2.29-0.799c0.554-0.533,0.832-1.279,0.832-2.239V29.8l-1.562,0.065c-1.241,0.045-2.136,0.237-2.685,0.579
			c-0.548,0.342-0.823,0.873-0.823,1.594c0,0.564,0.17,0.994,0.513,1.288C136.77,33.622,137.247,33.769,137.863,33.769z"/>
		<path fill="#F9F9F9" d="M143.452,24.562h1.673l2.257,5.878c0.495,1.342,0.803,2.31,0.922,2.906h0.075
			c0.082-0.32,0.253-0.867,0.512-1.642c0.26-0.774,1.112-3.155,2.553-7.143h1.675l-4.43,11.737c-0.439,1.16-0.951,1.983-1.538,2.47
			c-0.586,0.485-1.306,0.728-2.158,0.728c-0.477,0-0.947-0.053-1.411-0.159v-1.251c0.345,0.075,0.731,0.113,1.157,0.113
			c1.072,0,1.837-0.602,2.295-1.806l0.573-1.467L143.452,24.562z"/>
	</g>
	<g>
		<path fill="#F9F9F9" d="M95.6,25.519c0.496,0.41,1.53,1.272,1.53,2.911c0,1.594-0.905,2.35-1.811,3.061
			c-0.28,0.28-0.604,0.583-0.604,1.058c0,0.473,0.323,0.732,0.561,0.927l0.777,0.602c0.949,0.798,1.81,1.531,1.81,3.02
			c0,2.026-1.962,4.074-5.67,4.074c-3.127,0-4.635-1.487-4.635-3.084c0-0.776,0.386-1.875,1.66-2.63
			c1.336-0.819,3.148-0.926,4.118-0.992c-0.303-0.388-0.647-0.797-0.647-1.465c0-0.366,0.108-0.582,0.216-0.842
			c-0.238,0.022-0.475,0.043-0.691,0.043c-2.284,0-3.578-1.703-3.578-3.384c0-0.992,0.453-2.092,1.379-2.889
			c1.229-1.013,2.695-1.186,3.86-1.186h4.44l-1.38,0.776H95.6z M94.069,35.092c-0.172-0.023-0.281-0.023-0.495-0.023
			c-0.194,0-1.36,0.044-2.264,0.347c-0.474,0.171-1.854,0.689-1.854,2.22c0,1.53,1.488,2.631,3.795,2.631
			c2.068,0,3.169-0.994,3.169-2.329C96.419,36.837,95.708,36.257,94.069,35.092z M94.694,30.995
			c0.495-0.496,0.538-1.186,0.538-1.574c0-1.552-0.927-3.966-2.715-3.966c-0.561,0-1.164,0.28-1.509,0.712
			c-0.366,0.453-0.475,1.034-0.475,1.595c0,1.444,0.841,3.838,2.696,3.838C93.767,31.599,94.348,31.341,94.694,30.995z"/>
		<path fill="#F9F9F9" d="M82.027,34.747c-3.422,0-5.252-2.669-5.252-5.081c0-2.82,2.303-5.23,5.576-5.23
			c3.163,0,5.143,2.474,5.143,5.08C87.494,32.055,85.537,34.747,82.027,34.747z M84.717,33.004c0.517-0.689,0.647-1.55,0.647-2.39
			c0-1.895-0.904-5.51-3.573-5.51c-0.71,0-1.42,0.28-1.937,0.733c-0.839,0.752-0.991,1.7-0.991,2.627
			c0,2.129,1.055,5.637,3.66,5.637C83.362,34.1,84.223,33.692,84.717,33.004z"/>
		<path fill="#F9F9F9" d="M70.361,34.747c-3.423,0-5.252-2.669-5.252-5.081c0-2.82,2.304-5.23,5.576-5.23
			c3.164,0,5.144,2.474,5.144,5.08C75.828,32.055,73.869,34.747,70.361,34.747z M73.051,33.004c0.517-0.689,0.646-1.55,0.646-2.39
			c0-1.895-0.905-5.51-3.574-5.51c-0.71,0-1.421,0.28-1.937,0.733c-0.839,0.752-0.99,1.7-0.99,2.627c0,2.129,1.054,5.637,3.66,5.637
			C71.696,34.1,72.556,33.692,73.051,33.004z"/>
		<path fill="#F9F9F9" d="M63.464,34.41l-3.095,0.714c-1.256,0.195-2.381,0.367-3.57,0.367c-5.973,0-8.245-4.393-8.245-7.834
			c0-4.198,3.224-8.092,8.743-8.092c1.169,0,2.293,0.173,3.31,0.454c1.623,0.455,2.38,1.017,2.857,1.342l-1.797,1.709l-0.757,0.172
			l0.541-0.866c-0.735-0.714-2.078-2.033-4.631-2.033c-3.419,0-5.995,2.598-5.995,6.385c0,4.067,2.944,7.898,7.66,7.898
			c1.386,0,2.099-0.281,2.749-0.541v-3.483l-3.267,0.173l1.73-0.931h4.588l-0.562,0.541c-0.153,0.13-0.174,0.174-0.217,0.346
			c-0.022,0.195-0.043,0.823-0.043,1.04V34.41z"/>
		<path fill="#F9F9F9" d="M102.44,33.787c-0.715-0.065-0.864-0.194-0.864-1.039v-0.238v-12.01c0.004-0.047,0.007-0.094,0.012-0.14
			c0.087-0.757,0.303-0.887,0.975-1.277h-3.096l-1.624,0.779h1.655v0.01l-0.001-0.008v12.645v0.715c0,0.432-0.086,0.498-0.584,1.146
			h3.831l0.801-0.475C103.177,33.851,102.808,33.83,102.44,33.787z"/>
		<path fill="#F9F9F9" d="M111.245,33.985c-0.236,0.129-0.472,0.28-0.708,0.387c-0.711,0.322-1.441,0.408-2.087,0.408
			c-0.686,0-1.761-0.044-2.858-0.839c-1.525-1.075-2.191-2.924-2.191-4.535c0-3.331,2.708-4.964,4.921-4.964
			c0.774,0,1.57,0.193,2.215,0.602c1.074,0.708,1.353,1.632,1.502,2.126l-5.049,2.042l-1.655,0.129
			c0.536,2.729,2.385,4.318,4.427,4.318c1.096,0,1.891-0.386,2.622-0.751L111.245,33.985z M109.226,27.58
			c0.408-0.15,0.623-0.279,0.623-0.58c0-0.859-0.967-1.848-2.128-1.848c-0.861,0-2.471,0.667-2.471,2.987
			c0,0.365,0.043,0.752,0.065,1.14L109.226,27.58z"/>
		<g>
			<path fill="#F9F9F9" d="M113.32,24.591v1.418h-0.172v-1.418h-0.469v-0.147h1.11v0.147H113.32z"/>
			<path fill="#F9F9F9" d="M115.253,26.009v-1.431h-0.008l-0.437,1.431h-0.135l-0.441-1.431h-0.005v1.431h-0.156v-1.565h0.268
				l0.399,1.265h0.006l0.393-1.265h0.272v1.565H115.253z"/>
		</g>
	</g>
	<g>
		<path fill="#F9F9FA" d="M52.852,15.351h-1.075c0-0.148-0.102-0.567-0.306-1.257h-1.552c-0.211,0.679-0.316,1.098-0.316,1.257
			h-1.011c0-0.087,0.262-0.804,0.785-2.151c0.523-1.346,0.785-2.088,0.785-2.225h1.27c0,0.128,0.237,0.858,0.711,2.192
			C52.615,14.502,52.852,15.23,52.852,15.351z M51.299,13.452c-0.383-1.156-0.575-1.781-0.575-1.875h-0.054
			c0,0.087-0.198,0.712-0.595,1.875H51.299z"/>
		<path fill="#F9F9FA" d="M57.185,15.351h-0.83c0-0.092-0.308-0.577-0.924-1.455c-0.645-0.925-1.013-1.558-1.102-1.899h-0.054
			c0.056,0.491,0.084,0.934,0.084,1.331c0,0.553,0.016,1.228,0.047,2.023h-0.827c0.034-0.694,0.05-1.457,0.05-2.288
			c0-0.818-0.017-1.513-0.05-2.087h0.998c0,0.119,0.277,0.593,0.83,1.421c0.589,0.88,0.927,1.477,1.015,1.791h0.05
			c-0.054-0.499-0.081-0.948-0.081-1.344c0-0.607-0.016-1.23-0.047-1.868h0.84c-0.031,0.556-0.047,1.251-0.047,2.087
			C57.138,13.905,57.153,14.667,57.185,15.351z"/>
		<path fill="#F9F9FA" d="M62.055,13.012c0,0.636-0.204,1.192-0.612,1.667c-0.408,0.475-0.979,0.712-1.714,0.712
			c-0.332,0-0.789-0.013-1.371-0.04c0.029-0.677,0.044-1.439,0.044-2.288c0-0.815-0.015-1.511-0.044-2.087h0.588
			c0.096,0,0.24-0.003,0.43-0.01c0.19-0.007,0.315-0.01,0.373-0.01c0.809,0,1.395,0.202,1.759,0.605
			C61.873,11.964,62.055,12.447,62.055,13.012z M61.138,13.157c0-0.43-0.126-0.792-0.376-1.087
			c-0.251-0.294-0.634-0.442-1.149-0.442c-0.096,0-0.228,0.01-0.396,0.03c0.022,0.448,0.034,0.916,0.034,1.405
			c0,0.536,0.011,1.066,0.034,1.593c0.146,0.029,0.291,0.044,0.437,0.044c0.482,0,0.838-0.15,1.07-0.449
			C61.022,13.951,61.138,13.587,61.138,13.157z"/>
		<path fill="#F9F9FA" d="M66.546,15.351h-0.995c-0.26-0.793-0.459-1.282-0.598-1.468c-0.139-0.186-0.363-0.279-0.672-0.279
			c-0.13,0-0.254,0.001-0.373,0.003c0,0.576,0.01,1.157,0.03,1.744h-0.934c0.029-0.677,0.044-1.439,0.044-2.288
			c0-0.815-0.015-1.511-0.044-2.087h0.581c0.067,0,0.208-0.003,0.422-0.01c0.214-0.007,0.412-0.01,0.593-0.01
			c1.028,0,1.542,0.352,1.542,1.055c0,0.558-0.294,0.946-0.88,1.166v0.05c0.226,0.063,0.424,0.239,0.595,0.529
			C66.028,14.046,66.257,14.578,66.546,15.351z M65.286,12.259c0-0.446-0.287-0.669-0.86-0.669c-0.211,0-0.397,0.016-0.558,0.047
			c0.025,0.347,0.037,0.8,0.037,1.358c0.123,0.005,0.227,0.007,0.313,0.007C64.93,13.002,65.286,12.755,65.286,12.259z"/>
		<path fill="#F9F9FA" d="M71.363,13.083c0,0.688-0.211,1.258-0.632,1.71c-0.421,0.452-0.942,0.679-1.563,0.679
			c-0.591,0-1.087-0.208-1.485-0.624c-0.399-0.415-0.598-0.944-0.598-1.584c0-0.688,0.21-1.258,0.632-1.71
			c0.421-0.452,0.942-0.679,1.563-0.679c0.591,0,1.086,0.207,1.485,0.622C71.164,11.911,71.363,12.44,71.363,13.083z M70.436,13.18
			c0-0.468-0.12-0.848-0.36-1.139c-0.24-0.291-0.536-0.437-0.887-0.437c-0.327,0-0.605,0.147-0.833,0.44
			c-0.228,0.294-0.343,0.664-0.343,1.112c0,0.466,0.12,0.845,0.361,1.137c0.241,0.292,0.536,0.439,0.885,0.439
			c0.327,0,0.605-0.147,0.833-0.442C70.322,13.996,70.436,13.626,70.436,13.18z"/>
		<path fill="#F9F9FA" d="M73.263,15.351h-0.951c0.029-0.694,0.044-1.457,0.044-2.288c0-0.818-0.015-1.513-0.044-2.087h0.951
			c-0.029,0.565-0.044,1.26-0.044,2.087C73.22,13.907,73.234,14.67,73.263,15.351z"/>
		<path fill="#F9F9FA" d="M78.134,13.012c0,0.636-0.204,1.192-0.612,1.667c-0.408,0.475-0.979,0.712-1.714,0.712
			c-0.332,0-0.789-0.013-1.371-0.04c0.029-0.677,0.044-1.439,0.044-2.288c0-0.815-0.015-1.511-0.044-2.087h0.588
			c0.096,0,0.24-0.003,0.43-0.01c0.19-0.007,0.315-0.01,0.373-0.01c0.809,0,1.395,0.202,1.759,0.605
			C77.952,11.964,78.134,12.447,78.134,13.012z M77.216,13.157c0-0.43-0.126-0.792-0.376-1.087
			c-0.251-0.294-0.634-0.442-1.149-0.442c-0.096,0-0.229,0.01-0.397,0.03c0.022,0.448,0.034,0.916,0.034,1.405
			c0,0.536,0.011,1.066,0.034,1.593c0.146,0.029,0.291,0.044,0.437,0.044c0.482,0,0.838-0.15,1.07-0.449
			C77.101,13.951,77.216,13.587,77.216,13.157z"/>
		<path fill="#F9F9FA" d="M84.595,15.351H83.52c0-0.148-0.102-0.567-0.306-1.257h-1.552c-0.21,0.679-0.316,1.098-0.316,1.257h-1.011
			c0-0.087,0.261-0.804,0.784-2.151c0.523-1.346,0.784-2.088,0.784-2.225h1.27c0,0.128,0.237,0.858,0.711,2.192
			C84.358,14.502,84.595,15.23,84.595,15.351z M83.043,13.452c-0.383-1.156-0.575-1.781-0.575-1.875h-0.054
			c0,0.087-0.198,0.712-0.594,1.875H83.043z"/>
		<path fill="#F9F9FA" d="M88.515,12.122c0,0.536-0.199,0.931-0.597,1.186c-0.397,0.255-0.885,0.383-1.463,0.383
			c-0.105,0-0.18-0.002-0.225-0.007c0,0.421,0.012,0.977,0.037,1.667h-0.944c0.029-0.647,0.044-1.41,0.044-2.288
			c0-0.806-0.015-1.502-0.044-2.087h0.585c0.083,0,0.242-0.003,0.477-0.01c0.235-0.007,0.439-0.01,0.612-0.01
			c0.426,0,0.785,0.096,1.079,0.289C88.368,11.437,88.515,11.73,88.515,12.122z M87.648,12.306c0-0.479-0.318-0.719-0.954-0.719
			c-0.159,0-0.327,0.017-0.504,0.05c0.025,0.423,0.037,0.903,0.037,1.438c0.056,0.005,0.121,0.007,0.195,0.007
			C87.239,13.083,87.648,12.824,87.648,12.306z"/>
		<path fill="#F9F9FA" d="M92.545,12.122c0,0.536-0.199,0.931-0.596,1.186c-0.398,0.255-0.886,0.383-1.464,0.383
			c-0.105,0-0.18-0.002-0.225-0.007c0,0.421,0.012,0.977,0.037,1.667h-0.944c0.029-0.647,0.044-1.41,0.044-2.288
			c0-0.806-0.015-1.502-0.044-2.087h0.585c0.083,0,0.242-0.003,0.477-0.01c0.235-0.007,0.439-0.01,0.612-0.01
			c0.426,0,0.785,0.096,1.079,0.289C92.399,11.437,92.545,11.73,92.545,12.122z M91.678,12.306c0-0.479-0.318-0.719-0.954-0.719
			c-0.159,0-0.327,0.017-0.504,0.05c0.025,0.423,0.037,0.903,0.037,1.438c0.056,0.005,0.121,0.007,0.195,0.007
			C91.27,13.083,91.678,12.824,91.678,12.306z"/>
		<path fill="#F9F9FA" d="M99.135,13.083c0,0.688-0.21,1.258-0.632,1.71c-0.421,0.452-0.942,0.679-1.563,0.679
			c-0.591,0-1.087-0.208-1.485-0.624c-0.399-0.415-0.598-0.944-0.598-1.584c0-0.688,0.21-1.258,0.632-1.71
			c0.421-0.452,0.942-0.679,1.563-0.679c0.591,0,1.087,0.207,1.485,0.622C98.935,11.911,99.135,12.44,99.135,13.083z M98.207,13.18
			c0-0.468-0.12-0.848-0.36-1.139c-0.24-0.291-0.536-0.437-0.887-0.437c-0.327,0-0.605,0.147-0.833,0.44
			c-0.228,0.294-0.343,0.664-0.343,1.112c0,0.466,0.12,0.845,0.361,1.137c0.241,0.292,0.536,0.439,0.885,0.439
			c0.327,0,0.605-0.147,0.833-0.442C98.093,13.996,98.207,13.626,98.207,13.18z"/>
		<path fill="#F9F9FA" d="M103.689,15.351h-0.83c0-0.092-0.308-0.577-0.924-1.455c-0.645-0.925-1.013-1.558-1.102-1.899h-0.054
			c0.056,0.491,0.084,0.934,0.084,1.331c0,0.553,0.016,1.228,0.047,2.023h-0.827c0.034-0.694,0.05-1.457,0.05-2.288
			c0-0.818-0.017-1.513-0.05-2.087h0.998c0,0.119,0.277,0.593,0.83,1.421c0.589,0.88,0.927,1.477,1.015,1.791h0.05
			c-0.054-0.499-0.081-0.948-0.081-1.344c0-0.607-0.016-1.23-0.047-1.868h0.84c-0.031,0.556-0.047,1.251-0.047,2.087
			C103.642,13.905,103.658,14.667,103.689,15.351z"/>
	</g>
</g>
</svg>
