<?xml version="1.0" encoding="utf-8"?>
<!-- Generator: Adobe Illustrator 17.0.0, SVG Export Plug-In . SVG Version: 6.00 Build 0)  -->
<!DOCTYPE svg PUBLIC "-//W3C//DTD SVG 1.1//EN" "http://www.w3.org/Graphics/SVG/1.1/DTD/svg11.dtd">
<svg version="1.1" id="Layer_1" xmlns="http://www.w3.org/2000/svg" xmlns:xlink="http://www.w3.org/1999/xlink" x="0px" y="0px"
	 width="160px" height="53px" viewBox="0 0 160 53" enable-background="new 0 0 160 53" xml:space="preserve">
<rect y="0" opacity="0" fill="#2DB561" width="160" height="53"/>
<g>
	<path d="M160,45.595c0,3.906-3.166,7.074-7.071,7.074H7.073C3.167,52.669,0,49.501,0,45.595V7.404c0-3.906,3.167-7.073,7.073-7.073
		h145.856c3.905,0,7.071,3.167,7.071,7.073V45.595z"/>
	<path fill="#FFFFFF" d="M27.633,9.282H14.6c-1.561,0-2.828,1.266-2.828,2.828v28.874c0,1.563,1.267,2.829,2.828,2.829h13.033
		c1.563,0,2.83-1.267,2.83-2.829V12.11C30.463,10.547,29.196,9.282,27.633,9.282z M21.117,41.737c-1.04,0-1.883-0.843-1.883-1.885
		c0-1.04,0.843-1.883,1.883-1.883c1.041,0,1.884,0.843,1.884,1.883C23.001,40.893,22.158,41.737,21.117,41.737z M28.241,37.051
		H13.993V15.753h14.248V37.051z"/>
	<g>
		<path fill="#FFFFFF" d="M41.137,14.428l-0.792,2.399h-1.019l2.591-7.628h1.189l2.603,7.628h-1.053l-0.815-2.399H41.137z
			 M43.638,13.659l-0.758-2.196c-0.159-0.499-0.272-0.951-0.385-1.392h-0.033c-0.102,0.441-0.227,0.917-0.374,1.38l-0.747,2.207
			H43.638z"/>
		<path fill="#FFFFFF" d="M46.728,11.349l1.075,3.068c0.181,0.509,0.329,0.962,0.442,1.414h0.034
			c0.125-0.452,0.282-0.905,0.464-1.414l1.064-3.068h1.041l-2.151,5.478h-0.951l-2.081-5.478H46.728z"/>
		<path fill="#FFFFFF" d="M55.431,15.515c0,0.475,0.023,0.938,0.08,1.312h-0.894l-0.091-0.69h-0.034
			c-0.294,0.431-0.894,0.815-1.675,0.815c-1.109,0-1.675-0.781-1.675-1.573c0-1.325,1.177-2.049,3.293-2.038v-0.113
			c0-0.452-0.125-1.279-1.244-1.267c-0.521,0-1.052,0.146-1.438,0.407l-0.227-0.669c0.453-0.282,1.121-0.474,1.811-0.474
			c1.687,0,2.094,1.143,2.094,2.241V15.515z M54.458,14.031c-1.087-0.022-2.319,0.17-2.319,1.234c0,0.656,0.429,0.951,0.927,0.951
			c0.725,0,1.188-0.453,1.347-0.917c0.034-0.102,0.045-0.215,0.045-0.317V14.031z"/>
		<path fill="#FFFFFF" d="M57.444,10.342c-0.373,0-0.622-0.294-0.622-0.645c0-0.351,0.261-0.633,0.645-0.633
			c0.385,0,0.634,0.282,0.634,0.633c0,0.351-0.249,0.645-0.645,0.645H57.444z M56.97,16.827v-5.478h0.996v5.478H56.97z"/>
		<path fill="#FFFFFF" d="M59.561,8.792h0.996v8.035h-0.996V8.792z"/>
		<path fill="#FFFFFF" d="M66.012,15.515c0,0.475,0.023,0.938,0.079,1.312h-0.895l-0.09-0.69h-0.033
			c-0.294,0.431-0.894,0.815-1.676,0.815c-1.108,0-1.675-0.781-1.675-1.573c0-1.325,1.177-2.049,3.294-2.038v-0.113
			c0-0.452-0.125-1.279-1.246-1.267c-0.52,0-1.053,0.146-1.436,0.407l-0.227-0.669c0.453-0.282,1.121-0.474,1.811-0.474
			c1.686,0,2.094,1.143,2.094,2.241V15.515z M65.039,14.031c-1.087-0.022-2.321,0.17-2.321,1.234c0,0.656,0.43,0.951,0.928,0.951
			c0.725,0,1.189-0.453,1.347-0.917c0.034-0.102,0.045-0.215,0.045-0.317V14.031z"/>
		<path fill="#FFFFFF" d="M67.55,8.792h0.996v3.429h0.023c0.35-0.611,0.984-0.996,1.866-0.996c1.359,0,2.309,1.132,2.309,2.784
			c0,1.969-1.245,2.942-2.467,2.942c-0.792,0-1.415-0.306-1.833-1.03h-0.024l-0.057,0.905h-0.859
			c0.034-0.374,0.044-0.928,0.044-1.414V8.792z M68.546,14.632c0,0.123,0.011,0.248,0.035,0.362c0.191,0.69,0.781,1.166,1.493,1.166
			c1.053,0,1.663-0.849,1.663-2.105c0-1.109-0.566-2.047-1.629-2.047c-0.679,0-1.314,0.475-1.506,1.221
			c-0.033,0.125-0.057,0.261-0.057,0.419V14.632z"/>
		<path fill="#FFFFFF" d="M73.933,8.792h0.996v8.035h-0.996V8.792z"/>
		<path fill="#FFFFFF" d="M77.09,14.258c0.022,1.347,0.871,1.901,1.867,1.901c0.714,0,1.154-0.125,1.517-0.272l0.18,0.701
			c-0.35,0.159-0.962,0.351-1.833,0.351c-1.675,0-2.693-1.121-2.693-2.761c0-1.664,0.984-2.965,2.581-2.965
			c1.786,0,2.251,1.574,2.251,2.58c0,0.204-0.012,0.363-0.034,0.476L77.09,14.258z M79.998,13.545
			c0.011-0.623-0.261-1.619-1.37-1.619c-1.017,0-1.448,0.928-1.527,1.619H79.998z"/>
		<path fill="#FFFFFF" d="M86.709,16.952c-1.471,0-2.626-1.087-2.626-2.818c0-1.834,1.212-2.909,2.716-2.909
			c1.573,0,2.636,1.143,2.636,2.807c0,2.038-1.415,2.92-2.716,2.92H86.709z M86.743,16.205c0.951,0,1.663-0.894,1.663-2.139
			c0-0.928-0.463-2.094-1.64-2.094c-1.166,0-1.675,1.087-1.675,2.128c0,1.2,0.679,2.105,1.641,2.105H86.743z"/>
		<path fill="#FFFFFF" d="M90.636,12.833c0-0.578-0.013-1.03-0.047-1.483h0.883l0.056,0.894h0.023
			c0.272-0.508,0.905-1.018,1.81-1.018c0.758,0,1.937,0.453,1.937,2.332v3.27h-0.998v-3.158c0-0.881-0.327-1.629-1.268-1.629
			c-0.645,0-1.154,0.464-1.335,1.019c-0.045,0.125-0.068,0.306-0.068,0.465v3.304h-0.995V12.833z"/>
		<path fill="#FFFFFF" d="M100.402,10.037v1.312h1.425v0.758h-1.425v2.954c0,0.679,0.192,1.064,0.746,1.064
			c0.272,0,0.431-0.022,0.579-0.068l0.044,0.758c-0.191,0.068-0.497,0.136-0.882,0.136c-0.466,0-0.839-0.159-1.077-0.418
			c-0.271-0.306-0.384-0.793-0.384-1.438v-2.988H98.58v-0.758h0.848v-1.007L100.402,10.037z"/>
		<path fill="#FFFFFF" d="M102.891,8.792h0.996v3.417h0.022c0.158-0.284,0.408-0.543,0.714-0.701
			c0.294-0.181,0.645-0.283,1.019-0.283c0.735,0,1.911,0.453,1.911,2.343v3.259h-0.995v-3.146c0-0.894-0.329-1.631-1.268-1.631
			c-0.645,0-1.143,0.453-1.334,0.996c-0.057,0.136-0.068,0.283-0.068,0.476v3.304h-0.996V8.792z"/>
		<path fill="#FFFFFF" d="M109.68,14.258c0.023,1.347,0.871,1.901,1.867,1.901c0.713,0,1.155-0.125,1.518-0.272l0.18,0.701
			c-0.351,0.159-0.962,0.351-1.834,0.351c-1.674,0-2.693-1.121-2.693-2.761c0-1.664,0.985-2.965,2.581-2.965
			c1.788,0,2.253,1.574,2.253,2.58c0,0.204-0.012,0.363-0.034,0.476L109.68,14.258z M112.589,13.545
			c0.01-0.623-0.261-1.619-1.37-1.619c-1.018,0-1.45,0.928-1.528,1.619H112.589z"/>
		<path fill="#FFFFFF" d="M117.546,10.342c-0.375,0-0.624-0.294-0.624-0.645c0-0.351,0.26-0.633,0.646-0.633
			c0.384,0,0.634,0.282,0.634,0.633c0,0.351-0.249,0.645-0.646,0.645H117.546z M117.069,16.827v-5.478h0.996v5.478H117.069z"/>
		<path fill="#FFFFFF" d="M119.695,9.301c0.475-0.09,1.098-0.158,1.89-0.158c0.973,0,1.686,0.226,2.138,0.634
			c0.419,0.361,0.68,0.916,0.68,1.595c0,0.69-0.204,1.234-0.601,1.629c-0.52,0.555-1.369,0.838-2.331,0.838
			c-0.293,0-0.565-0.012-0.792-0.067v3.055h-0.985V9.301z M120.68,12.967c0.214,0.057,0.499,0.079,0.815,0.079
			c1.199,0,1.912-0.588,1.912-1.618c0-1.019-0.713-1.505-1.799-1.505c-0.429,0-0.758,0.045-0.928,0.079V12.967z"/>
		<path fill="#FFFFFF" d="M125.569,8.792h0.997v3.417h0.023c0.158-0.284,0.408-0.543,0.712-0.701
			c0.295-0.181,0.646-0.283,1.019-0.283c0.736,0,1.912,0.453,1.912,2.343v3.259h-0.995v-3.146c0-0.894-0.329-1.631-1.268-1.631
			c-0.644,0-1.142,0.453-1.335,0.996c-0.057,0.136-0.068,0.283-0.068,0.476v3.304h-0.997V8.792z"/>
		<path fill="#FFFFFF" d="M134.023,16.952c-1.471,0-2.626-1.087-2.626-2.818c0-1.834,1.212-2.909,2.717-2.909
			c1.573,0,2.636,1.143,2.636,2.807c0,2.038-1.414,2.92-2.715,2.92H134.023z M134.058,16.205c0.949,0,1.663-0.894,1.663-2.139
			c0-0.928-0.464-2.094-1.642-2.094c-1.165,0-1.675,1.087-1.675,2.128c0,1.2,0.679,2.105,1.641,2.105H134.058z"/>
		<path fill="#FFFFFF" d="M137.949,12.833c0-0.578-0.012-1.03-0.045-1.483h0.883l0.056,0.894h0.023
			c0.272-0.508,0.905-1.018,1.81-1.018c0.758,0,1.934,0.453,1.934,2.332v3.27h-0.995v-3.158c0-0.881-0.329-1.629-1.268-1.629
			c-0.645,0-1.154,0.464-1.334,1.019c-0.046,0.125-0.07,0.306-0.07,0.465v3.304h-0.995V12.833z"/>
		<path fill="#FFFFFF" d="M144.739,14.258c0.023,1.347,0.872,1.901,1.868,1.901c0.712,0,1.154-0.125,1.516-0.272l0.181,0.701
			c-0.352,0.159-0.962,0.351-1.834,0.351c-1.675,0-2.694-1.121-2.694-2.761c0-1.664,0.985-2.965,2.58-2.965
			c1.788,0,2.253,1.574,2.253,2.58c0,0.204-0.011,0.363-0.034,0.476L144.739,14.258z M147.648,13.545
			c0.011-0.623-0.261-1.619-1.37-1.619c-1.019,0-1.449,0.928-1.528,1.619H147.648z"/>
	</g>
	<g>
		<path fill="#FFFFFF" d="M45.826,21.994l-6.71,19.752h3.073l2.004-6.065h6.497l2.06,6.065h3.158l-6.739-19.752H45.826z
			 M47.418,25.242c0.227,0.882,0.471,1.797,0.785,2.786l1.808,5.237h-5.147l1.783-5.271C46.92,27.139,47.177,26.216,47.418,25.242z"
			/>
		<path fill="#FFFFFF" d="M64.59,27.115c-2.035,0-3.666,0.785-4.751,2.279l-0.119-1.965h-2.733l0.016,0.251
			c0.08,1.224,0.114,2.571,0.114,4.505V47.41h2.988v-7.105c0.927,1.11,2.408,1.755,4.085,1.755c1.747,0,3.356-0.684,4.529-1.925
			c1.309-1.384,2-3.372,2-5.748c0-2.1-0.6-3.915-1.737-5.249C67.869,27.833,66.31,27.115,64.59,27.115z M63.846,29.588
			c2.664,0,3.856,2.468,3.856,4.913c0,3.154-1.521,5.114-3.97,5.114c-1.672,0-3.118-1.138-3.521-2.773
			c-0.069-0.254-0.107-0.589-0.107-0.968v-2.403c0-0.217,0.049-0.481,0.095-0.737c0.015-0.082,0.031-0.163,0.043-0.243
			C60.689,30.781,62.168,29.588,63.846,29.588z"/>
		<path fill="#FFFFFF" d="M79.979,27.115c-2.035,0-3.666,0.785-4.752,2.279l-0.119-1.965h-2.733l0.016,0.251
			c0.081,1.225,0.115,2.571,0.115,4.505V47.41h2.989v-7.105c0.927,1.11,2.407,1.755,4.083,1.755c1.748,0,3.356-0.684,4.531-1.925
			c1.307-1.384,1.998-3.372,1.998-5.748c0-2.1-0.601-3.915-1.737-5.249C83.258,27.833,81.699,27.115,79.979,27.115z M79.236,29.588
			c2.663,0,3.855,2.468,3.855,4.913c0,3.154-1.522,5.114-3.97,5.114c-1.671,0-3.118-1.138-3.521-2.773
			c-0.069-0.254-0.105-0.589-0.105-0.968v-2.403c0-0.219,0.047-0.484,0.095-0.74c0.015-0.081,0.029-0.161,0.043-0.24
			C76.078,30.781,77.558,29.588,79.236,29.588z"/>
		<path fill="#FFFFFF" d="M99.258,30.363c-2.789-1.08-3.683-1.93-3.683-3.499c0-1.322,1.05-2.654,3.397-2.654
			c1.936,0,3.175,0.673,3.508,0.88l0.254,0.156l0.843-2.494l-0.167-0.097c-0.5-0.294-1.927-0.977-4.352-0.977
			c-3.811,0-6.473,2.25-6.473,5.471c0,2.597,1.667,4.412,5.246,5.713c2.536,0.948,3.479,1.919,3.479,3.584
			c0,1.884-1.456,3.054-3.798,3.054c-1.526,0-3.096-0.445-4.307-1.221l-0.259-0.166l-0.802,2.552l0.147,0.098
			c1.128,0.753,3.252,1.298,5.05,1.298c5.136,0,6.958-3.132,6.958-5.814C104.299,33.482,102.839,31.776,99.258,30.363z"/>
		<path fill="#FFFFFF" d="M109.679,24.026l-2.931,0.92v2.483h-2.145v2.389h2.145v7.316c0,1.769,0.339,3.008,1.035,3.792
			c0.668,0.732,1.695,1.135,2.891,1.135c1.13,0,1.932-0.223,2.31-0.357l0.167-0.059l-0.143-2.393l-0.287,0.088
			c-0.378,0.116-0.766,0.161-1.39,0.161c-1.158,0-1.653-0.733-1.653-2.453v-7.23h3.605v-2.389h-3.605V24.026z"/>
		<path fill="#FFFFFF" d="M120.69,27.115c-4.182,0-7.101,3.121-7.101,7.587c0,4.333,2.826,7.359,6.872,7.359h0.028
			c3.421,0,7.101-2.383,7.101-7.616c0-2.128-0.658-3.955-1.904-5.286C124.432,27.822,122.704,27.115,120.69,27.115z M120.604,29.474
			c2.689,0,3.912,2.621,3.912,5.057c0,2.996-1.67,5.17-3.969,5.17h-0.029c-2.267,0-3.912-2.138-3.912-5.084
			C116.606,32.057,117.842,29.474,120.604,29.474z"/>
		<path fill="#FFFFFF" d="M136.744,27.253l-0.179-0.046c-0.263-0.066-0.478-0.093-0.744-0.093c-1.563,0-2.966,0.92-3.747,2.406
			l-0.088-2.092h-2.682l0.017,0.251c0.079,1.183,0.113,2.511,0.113,4.304l-0.028,9.763h2.989V34.13c0-0.415,0.029-0.807,0.082-1.158
			c0.338-1.83,1.572-3.012,3.145-3.012c0.306,0,0.547,0.025,0.802,0.05l0.32,0.033V27.253z"/>
		<path fill="#FFFFFF" d="M143.463,27.086c-3.979,0-6.758,3.179-6.758,7.73c0,4.383,2.765,7.216,7.043,7.216
			c2.25,0,3.816-0.494,4.732-0.908l0.18-0.081l-0.574-2.227l-0.25,0.101c-0.814,0.331-1.896,0.67-3.745,0.67
			c-1.298,0-4.292-0.428-4.476-4.333l9.647,0.029l0.038-0.191c0.061-0.304,0.09-0.713,0.09-1.248
			C149.392,30.727,147.839,27.086,143.463,27.086z M143.264,29.359c0.91,0,1.649,0.282,2.194,0.837
			c0.86,0.875,1.011,2.163,1.029,2.782h-6.815C139.949,31.253,141.028,29.359,143.264,29.359z"/>
	</g>
</g>
</svg>
