<svg xmlns="http://www.w3.org/2000/svg" width="69" height="69" viewBox="0 0 69 69">
  <g id="Group_1373" data-name="Group 1373" transform="translate(-1417 -9917)">
    <path id="Path_273" data-name="Path 273" d="M34.5,0A34.5,34.5,0,1,1,0,34.5,34.5,34.5,0,0,1,34.5,0Z" transform="translate(1417 9917)" fill="#ffd018"/>
    <g id="Component_7" data-name="Component 7" transform="translate(1435 9935)">
      <path id="Path_3" data-name="Path 3" d="M17,3.022a52.126,52.126,0,0,1,6.8.189,8.761,8.761,0,0,1,3.211.567,6.634,6.634,0,0,1,3.211,3.211,8.761,8.761,0,0,1,.567,3.211c0,1.7.189,2.267.189,6.8a52.127,52.127,0,0,1-.189,6.8,8.761,8.761,0,0,1-.567,3.211,6.634,6.634,0,0,1-3.211,3.211,8.761,8.761,0,0,1-3.211.567c-1.7,0-2.267.189-6.8.189a52.127,52.127,0,0,1-6.8-.189,8.761,8.761,0,0,1-3.211-.567,6.634,6.634,0,0,1-3.211-3.211A8.761,8.761,0,0,1,3.211,23.8c0-1.7-.189-2.267-.189-6.8a52.126,52.126,0,0,1,.189-6.8,8.761,8.761,0,0,1,.567-3.211A6.784,6.784,0,0,1,5.1,5.1,3.194,3.194,0,0,1,6.989,3.778,8.761,8.761,0,0,1,10.2,3.211,52.126,52.126,0,0,1,17,3.022M17,0a55.811,55.811,0,0,0-6.989.189A11.661,11.661,0,0,0,5.856.944,7.394,7.394,0,0,0,2.833,2.833,7.394,7.394,0,0,0,.944,5.856a8.606,8.606,0,0,0-.756,4.156A55.811,55.811,0,0,0,0,17a55.811,55.811,0,0,0,.189,6.989,11.661,11.661,0,0,0,.756,4.156,7.394,7.394,0,0,0,1.889,3.022,7.394,7.394,0,0,0,3.022,1.889,11.661,11.661,0,0,0,4.156.756A55.813,55.813,0,0,0,17,34a55.813,55.813,0,0,0,6.989-.189,11.661,11.661,0,0,0,4.156-.756,7.925,7.925,0,0,0,4.911-4.911,11.661,11.661,0,0,0,.756-4.156C33.811,22.1,34,21.533,34,17a55.813,55.813,0,0,0-.189-6.989,11.661,11.661,0,0,0-.756-4.156,7.394,7.394,0,0,0-1.889-3.022A7.394,7.394,0,0,0,28.144.944,11.661,11.661,0,0,0,23.989.189,55.811,55.811,0,0,0,17,0m0,8.311A8.549,8.549,0,0,0,8.311,17,8.689,8.689,0,1,0,17,8.311m0,14.356A5.566,5.566,0,0,1,11.333,17,5.566,5.566,0,0,1,17,11.333,5.566,5.566,0,0,1,22.667,17,5.566,5.566,0,0,1,17,22.667M26.067,5.856a2.078,2.078,0,1,0,2.078,2.078,2.1,2.1,0,0,0-2.078-2.078" fill="#272727" fill-rule="evenodd"/>
    </g>
  </g>
</svg>
